<svg version="1.1" xmlns="http://www.w3.org/2000/svg" xmlns:xlink="http://www.w3.org/1999/xlink" width="834.0380859375" height="515"><defs/><g><text fill="#eeeeee" stroke="none" font-family="Arial" font-size="24px" font-style="normal" font-weight="normal" text-decoration="none" x="0" y="0">UNREGISTERED</text><text fill="#eeeeee" stroke="none" font-family="Arial" font-size="24px" font-style="normal" font-weight="normal" text-decoration="none" x="0" y="30">UNREGISTERED</text><text fill="#eeeeee" stroke="none" font-family="Arial" font-size="24px" font-style="normal" font-weight="normal" text-decoration="none" x="0" y="60">UNREGISTERED</text><text fill="#eeeeee" stroke="none" font-family="Arial" font-size="24px" font-style="normal" font-weight="normal" text-decoration="none" x="0" y="90">UNREGISTERED</text><text fill="#eeeeee" stroke="none" font-family="Arial" font-size="24px" font-style="normal" font-weight="normal" text-decoration="none" x="0" y="120">UNREGISTERED</text><text fill="#eeeeee" stroke="none" font-family="Arial" font-size="24px" font-style="normal" font-weight="normal" text-decoration="none" x="0" y="150">UNREGISTERED</text><text fill="#eeeeee" stroke="none" font-family="Arial" font-size="24px" font-style="normal" font-weight="normal" text-decoration="none" x="0" y="180">UNREGISTERED</text><text fill="#eeeeee" stroke="none" font-family="Arial" font-size="24px" font-style="normal" font-weight="normal" text-decoration="none" x="0" y="210">UNREGISTERED</text><text fill="#eeeeee" stroke="none" font-family="Arial" font-size="24px" font-style="normal" font-weight="normal" text-decoration="none" x="0" y="240">UNREGISTERED</text><text fill="#eeeeee" stroke="none" font-family="Arial" font-size="24px" font-style="normal" font-weight="normal" text-decoration="none" x="0" y="270">UNREGISTERED</text><text fill="#eeeeee" stroke="none" font-family="Arial" font-size="24px" font-style="normal" font-weight="normal" text-decoration="none" x="0" y="300">UNREGISTERED</text><text fill="#eeeeee" stroke="none" font-family="Arial" font-size="24px" font-style="normal" font-weight="normal" text-decoration="none" x="0" y="330">UNREGISTERED</text><text fill="#eeeeee" stroke="none" font-family="Arial" font-size="24px" font-style="normal" font-weight="normal" text-decoration="none" x="0" y="360">UNREGISTERED</text><text fill="#eeeeee" stroke="none" font-family="Arial" font-size="24px" font-style="normal" font-weight="normal" text-decoration="none" x="0" y="390">UNREGISTERED</text><text fill="#eeeeee" stroke="none" font-family="Arial" font-size="24px" font-style="normal" font-weight="normal" text-decoration="none" x="0" y="420">UNREGISTERED</text><text fill="#eeeeee" stroke="none" font-family="Arial" font-size="24px" font-style="normal" font-weight="normal" text-decoration="none" x="0" y="450">UNREGISTERED</text><text fill="#eeeeee" stroke="none" font-family="Arial" font-size="24px" font-style="normal" font-weight="normal" text-decoration="none" x="0" y="480">UNREGISTERED</text><text fill="#eeeeee" stroke="none" font-family="Arial" font-size="24px" font-style="normal" font-weight="normal" text-decoration="none" x="0" y="510">UNREGISTERED</text><text fill="#eeeeee" stroke="none" font-family="Arial" font-size="24px" font-style="normal" font-weight="normal" text-decoration="none" x="200" y="0">UNREGISTERED</text><text fill="#eeeeee" stroke="none" font-family="Arial" font-size="24px" font-style="normal" font-weight="normal" text-decoration="none" x="200" y="30">UNREGISTERED</text><text fill="#eeeeee" stroke="none" font-family="Arial" font-size="24px" font-style="normal" font-weight="normal" text-decoration="none" x="200" y="60">UNREGISTERED</text><text fill="#eeeeee" stroke="none" font-family="Arial" font-size="24px" font-style="normal" font-weight="normal" text-decoration="none" x="200" y="90">UNREGISTERED</text><text fill="#eeeeee" stroke="none" font-family="Arial" font-size="24px" font-style="normal" font-weight="normal" text-decoration="none" x="200" y="120">UNREGISTERED</text><text fill="#eeeeee" stroke="none" font-family="Arial" font-size="24px" font-style="normal" font-weight="normal" text-decoration="none" x="200" y="150">UNREGISTERED</text><text fill="#eeeeee" stroke="none" font-family="Arial" font-size="24px" font-style="normal" font-weight="normal" text-decoration="none" x="200" y="180">UNREGISTERED</text><text fill="#eeeeee" stroke="none" font-family="Arial" font-size="24px" font-style="normal" font-weight="normal" text-decoration="none" x="200" y="210">UNREGISTERED</text><text fill="#eeeeee" stroke="none" font-family="Arial" font-size="24px" font-style="normal" font-weight="normal" text-decoration="none" x="200" y="240">UNREGISTERED</text><text fill="#eeeeee" stroke="none" font-family="Arial" font-size="24px" font-style="normal" font-weight="normal" text-decoration="none" x="200" y="270">UNREGISTERED</text><text fill="#eeeeee" stroke="none" font-family="Arial" font-size="24px" font-style="normal" font-weight="normal" text-decoration="none" x="200" y="300">UNREGISTERED</text><text fill="#eeeeee" stroke="none" font-family="Arial" font-size="24px" font-style="normal" font-weight="normal" text-decoration="none" x="200" y="330">UNREGISTERED</text><text fill="#eeeeee" stroke="none" font-family="Arial" font-size="24px" font-style="normal" font-weight="normal" text-decoration="none" x="200" y="360">UNREGISTERED</text><text fill="#eeeeee" stroke="none" font-family="Arial" font-size="24px" font-style="normal" font-weight="normal" text-decoration="none" x="200" y="390">UNREGISTERED</text><text fill="#eeeeee" stroke="none" font-family="Arial" font-size="24px" font-style="normal" font-weight="normal" text-decoration="none" x="200" y="420">UNREGISTERED</text><text fill="#eeeeee" stroke="none" font-family="Arial" font-size="24px" font-style="normal" font-weight="normal" text-decoration="none" x="200" y="450">UNREGISTERED</text><text fill="#eeeeee" stroke="none" font-family="Arial" font-size="24px" font-style="normal" font-weight="normal" text-decoration="none" x="200" y="480">UNREGISTERED</text><text fill="#eeeeee" stroke="none" font-family="Arial" font-size="24px" font-style="normal" font-weight="normal" text-decoration="none" x="200" y="510">UNREGISTERED</text><text fill="#eeeeee" stroke="none" font-family="Arial" font-size="24px" font-style="normal" font-weight="normal" text-decoration="none" x="400" y="0">UNREGISTERED</text><text fill="#eeeeee" stroke="none" font-family="Arial" font-size="24px" font-style="normal" font-weight="normal" text-decoration="none" x="400" y="30">UNREGISTERED</text><text fill="#eeeeee" stroke="none" font-family="Arial" font-size="24px" font-style="normal" font-weight="normal" text-decoration="none" x="400" y="60">UNREGISTERED</text><text fill="#eeeeee" stroke="none" font-family="Arial" font-size="24px" font-style="normal" font-weight="normal" text-decoration="none" x="400" y="90">UNREGISTERED</text><text fill="#eeeeee" stroke="none" font-family="Arial" font-size="24px" font-style="normal" font-weight="normal" text-decoration="none" x="400" y="120">UNREGISTERED</text><text fill="#eeeeee" stroke="none" font-family="Arial" font-size="24px" font-style="normal" font-weight="normal" text-decoration="none" x="400" y="150">UNREGISTERED</text><text fill="#eeeeee" stroke="none" font-family="Arial" font-size="24px" font-style="normal" font-weight="normal" text-decoration="none" x="400" y="180">UNREGISTERED</text><text fill="#eeeeee" stroke="none" font-family="Arial" font-size="24px" font-style="normal" font-weight="normal" text-decoration="none" x="400" y="210">UNREGISTERED</text><text fill="#eeeeee" stroke="none" font-family="Arial" font-size="24px" font-style="normal" font-weight="normal" text-decoration="none" x="400" y="240">UNREGISTERED</text><text fill="#eeeeee" stroke="none" font-family="Arial" font-size="24px" font-style="normal" font-weight="normal" text-decoration="none" x="400" y="270">UNREGISTERED</text><text fill="#eeeeee" stroke="none" font-family="Arial" font-size="24px" font-style="normal" font-weight="normal" text-decoration="none" x="400" y="300">UNREGISTERED</text><text fill="#eeeeee" stroke="none" font-family="Arial" font-size="24px" font-style="normal" font-weight="normal" text-decoration="none" x="400" y="330">UNREGISTERED</text><text fill="#eeeeee" stroke="none" font-family="Arial" font-size="24px" font-style="normal" font-weight="normal" text-decoration="none" x="400" y="360">UNREGISTERED</text><text fill="#eeeeee" stroke="none" font-family="Arial" font-size="24px" font-style="normal" font-weight="normal" text-decoration="none" x="400" y="390">UNREGISTERED</text><text fill="#eeeeee" stroke="none" font-family="Arial" font-size="24px" font-style="normal" font-weight="normal" text-decoration="none" x="400" y="420">UNREGISTERED</text><text fill="#eeeeee" stroke="none" font-family="Arial" font-size="24px" font-style="normal" font-weight="normal" text-decoration="none" x="400" y="450">UNREGISTERED</text><text fill="#eeeeee" stroke="none" font-family="Arial" font-size="24px" font-style="normal" font-weight="normal" text-decoration="none" x="400" y="480">UNREGISTERED</text><text fill="#eeeeee" stroke="none" font-family="Arial" font-size="24px" font-style="normal" font-weight="normal" text-decoration="none" x="400" y="510">UNREGISTERED</text><text fill="#eeeeee" stroke="none" font-family="Arial" font-size="24px" font-style="normal" font-weight="normal" text-decoration="none" x="600" y="0">UNREGISTERED</text><text fill="#eeeeee" stroke="none" font-family="Arial" font-size="24px" font-style="normal" font-weight="normal" text-decoration="none" x="600" y="30">UNREGISTERED</text><text fill="#eeeeee" stroke="none" font-family="Arial" font-size="24px" font-style="normal" font-weight="normal" text-decoration="none" x="600" y="60">UNREGISTERED</text><text fill="#eeeeee" stroke="none" font-family="Arial" font-size="24px" font-style="normal" font-weight="normal" text-decoration="none" x="600" y="90">UNREGISTERED</text><text fill="#eeeeee" stroke="none" font-family="Arial" font-size="24px" font-style="normal" font-weight="normal" text-decoration="none" x="600" y="120">UNREGISTERED</text><text fill="#eeeeee" stroke="none" font-family="Arial" font-size="24px" font-style="normal" font-weight="normal" text-decoration="none" x="600" y="150">UNREGISTERED</text><text fill="#eeeeee" stroke="none" font-family="Arial" font-size="24px" font-style="normal" font-weight="normal" text-decoration="none" x="600" y="180">UNREGISTERED</text><text fill="#eeeeee" stroke="none" font-family="Arial" font-size="24px" font-style="normal" font-weight="normal" text-decoration="none" x="600" y="210">UNREGISTERED</text><text fill="#eeeeee" stroke="none" font-family="Arial" font-size="24px" font-style="normal" font-weight="normal" text-decoration="none" x="600" y="240">UNREGISTERED</text><text fill="#eeeeee" stroke="none" font-family="Arial" font-size="24px" font-style="normal" font-weight="normal" text-decoration="none" x="600" y="270">UNREGISTERED</text><text fill="#eeeeee" stroke="none" font-family="Arial" font-size="24px" font-style="normal" font-weight="normal" text-decoration="none" x="600" y="300">UNREGISTERED</text><text fill="#eeeeee" stroke="none" font-family="Arial" font-size="24px" font-style="normal" font-weight="normal" text-decoration="none" x="600" y="330">UNREGISTERED</text><text fill="#eeeeee" stroke="none" font-family="Arial" font-size="24px" font-style="normal" font-weight="normal" text-decoration="none" x="600" y="360">UNREGISTERED</text><text fill="#eeeeee" stroke="none" font-family="Arial" font-size="24px" font-style="normal" font-weight="normal" text-decoration="none" x="600" y="390">UNREGISTERED</text><text fill="#eeeeee" stroke="none" font-family="Arial" font-size="24px" font-style="normal" font-weight="normal" text-decoration="none" x="600" y="420">UNREGISTERED</text><text fill="#eeeeee" stroke="none" font-family="Arial" font-size="24px" font-style="normal" font-weight="normal" text-decoration="none" x="600" y="450">UNREGISTERED</text><text fill="#eeeeee" stroke="none" font-family="Arial" font-size="24px" font-style="normal" font-weight="normal" text-decoration="none" x="600" y="480">UNREGISTERED</text><text fill="#eeeeee" stroke="none" font-family="Arial" font-size="24px" font-style="normal" font-weight="normal" text-decoration="none" x="600" y="510">UNREGISTERED</text><text fill="#eeeeee" stroke="none" font-family="Arial" font-size="24px" font-style="normal" font-weight="normal" text-decoration="none" x="800" y="0">UNREGISTERED</text><text fill="#eeeeee" stroke="none" font-family="Arial" font-size="24px" font-style="normal" font-weight="normal" text-decoration="none" x="800" y="30">UNREGISTERED</text><text fill="#eeeeee" stroke="none" font-family="Arial" font-size="24px" font-style="normal" font-weight="normal" text-decoration="none" x="800" y="60">UNREGISTERED</text><text fill="#eeeeee" stroke="none" font-family="Arial" font-size="24px" font-style="normal" font-weight="normal" text-decoration="none" x="800" y="90">UNREGISTERED</text><text fill="#eeeeee" stroke="none" font-family="Arial" font-size="24px" font-style="normal" font-weight="normal" text-decoration="none" x="800" y="120">UNREGISTERED</text><text fill="#eeeeee" stroke="none" font-family="Arial" font-size="24px" font-style="normal" font-weight="normal" text-decoration="none" x="800" y="150">UNREGISTERED</text><text fill="#eeeeee" stroke="none" font-family="Arial" font-size="24px" font-style="normal" font-weight="normal" text-decoration="none" x="800" y="180">UNREGISTERED</text><text fill="#eeeeee" stroke="none" font-family="Arial" font-size="24px" font-style="normal" font-weight="normal" text-decoration="none" x="800" y="210">UNREGISTERED</text><text fill="#eeeeee" stroke="none" font-family="Arial" font-size="24px" font-style="normal" font-weight="normal" text-decoration="none" x="800" y="240">UNREGISTERED</text><text fill="#eeeeee" stroke="none" font-family="Arial" font-size="24px" font-style="normal" font-weight="normal" text-decoration="none" x="800" y="270">UNREGISTERED</text><text fill="#eeeeee" stroke="none" font-family="Arial" font-size="24px" font-style="normal" font-weight="normal" text-decoration="none" x="800" y="300">UNREGISTERED</text><text fill="#eeeeee" stroke="none" font-family="Arial" font-size="24px" font-style="normal" font-weight="normal" text-decoration="none" x="800" y="330">UNREGISTERED</text><text fill="#eeeeee" stroke="none" font-family="Arial" font-size="24px" font-style="normal" font-weight="normal" text-decoration="none" x="800" y="360">UNREGISTERED</text><text fill="#eeeeee" stroke="none" font-family="Arial" font-size="24px" font-style="normal" font-weight="normal" text-decoration="none" x="800" y="390">UNREGISTERED</text><text fill="#eeeeee" stroke="none" font-family="Arial" font-size="24px" font-style="normal" font-weight="normal" text-decoration="none" x="800" y="420">UNREGISTERED</text><text fill="#eeeeee" stroke="none" font-family="Arial" font-size="24px" font-style="normal" font-weight="normal" text-decoration="none" x="800" y="450">UNREGISTERED</text><text fill="#eeeeee" stroke="none" font-family="Arial" font-size="24px" font-style="normal" font-weight="normal" text-decoration="none" x="800" y="480">UNREGISTERED</text><text fill="#eeeeee" stroke="none" font-family="Arial" font-size="24px" font-style="normal" font-weight="normal" text-decoration="none" x="800" y="510">UNREGISTERED</text><g transform="translate(-270,-158) scale(1,1)"><rect fill="#C0C0C0" stroke="none" x="543" y="175" width="177.35888671875" height="87" opacity="0.2"/></g><g transform="translate(-270,-158) scale(1,1)"><rect fill="#ffffff" stroke="none" x="536" y="168" width="177.35888671875" height="87"/></g><g transform="translate(-270,-158) scale(1,1)"><path fill="none" stroke="#000000" d="M 536 168 L 713.35888671875 168 L 713.35888671875 255 L 536 255 L 536 168 Z Z" stroke-miterlimit="10"/></g><g transform="translate(-270,-158) scale(1,1)"><path fill="none" stroke="#000000" d="M 536 193 L 713.35888671875 193" stroke-miterlimit="10"/></g><g transform="translate(-270,-158) scale(1,1)"><path fill="none" stroke="#000000" d="M 536 246 L 713.35888671875 246" stroke-miterlimit="10"/></g><g transform="translate(-270,-158) scale(1,1)"><g><path fill="none" stroke="none"/><text fill="#000000" stroke="none" font-family="Arial" font-size="13px" font-style="normal" font-weight="bold" text-decoration="none" x="595.76904296875" y="187.5">Ingredient</text></g></g><g transform="translate(-270,-158) scale(1,1)"><g><path fill="none" stroke="none"/><text fill="#000000" stroke="none" font-family="Arial" font-size="13px" font-style="normal" font-weight="normal" text-decoration="none" x="541" y="210.5">-idIngredient: int</text></g></g><g transform="translate(-270,-158) scale(1,1)"><g><path fill="none" stroke="none"/><text fill="#000000" stroke="none" font-family="Arial" font-size="13px" font-style="normal" font-weight="normal" text-decoration="none" x="541" y="225.5">-nIngredient: string</text></g></g><g transform="translate(-270,-158) scale(1,1)"><g><path fill="none" stroke="none"/><text fill="#000000" stroke="none" font-family="Arial" font-size="13px" font-style="normal" font-weight="normal" text-decoration="none" x="541" y="240.5">-IngredientDescription: string</text></g></g><g transform="translate(-270,-158) scale(1,1)"><rect fill="#C0C0C0" stroke="none" x="287" y="383" width="160.1962890625" height="117" opacity="0.2"/></g><g transform="translate(-270,-158) scale(1,1)"><rect fill="#ffffff" stroke="none" x="280" y="376" width="160.1962890625" height="117"/></g><g transform="translate(-270,-158) scale(1,1)"><path fill="none" stroke="#000000" d="M 280 376 L 440.1962890625 376 L 440.1962890625 493 L 280 493 L 280 376 Z Z" stroke-miterlimit="10"/></g><g transform="translate(-270,-158) scale(1,1)"><path fill="none" stroke="#000000" d="M 280 401 L 440.1962890625 401" stroke-miterlimit="10"/></g><g transform="translate(-270,-158) scale(1,1)"><path fill="none" stroke="#000000" d="M 280 469 L 440.1962890625 469" stroke-miterlimit="10"/></g><g transform="translate(-270,-158) scale(1,1)"><g><path fill="none" stroke="none"/><text fill="#000000" stroke="none" font-family="Arial" font-size="13px" font-style="normal" font-weight="bold" text-decoration="none" x="347.094970703125" y="395.5">Dish</text></g></g><g transform="translate(-270,-158) scale(1,1)"><g><path fill="none" stroke="none"/><text fill="#000000" stroke="none" font-family="Arial" font-size="13px" font-style="normal" font-weight="normal" text-decoration="none" x="285" y="418.5">-idDish: int</text></g></g><g transform="translate(-270,-158) scale(1,1)"><g><path fill="none" stroke="none"/><text fill="#000000" stroke="none" font-family="Arial" font-size="13px" font-style="normal" font-weight="normal" text-decoration="none" x="285" y="433.5">-nDish: String</text></g></g><g transform="translate(-270,-158) scale(1,1)"><g><path fill="none" stroke="none"/><text fill="#000000" stroke="none" font-family="Arial" font-size="13px" font-style="normal" font-weight="normal" text-decoration="none" x="285" y="448.5">-tDishDescription: string</text></g></g><g transform="translate(-270,-158) scale(1,1)"><g><path fill="none" stroke="none"/><text fill="#000000" stroke="none" font-family="Arial" font-size="13px" font-style="normal" font-weight="normal" text-decoration="none" x="285" y="463.5">-tDIshRecipe: string</text></g></g><g transform="translate(-270,-158) scale(1,1)"><rect fill="#C0C0C0" stroke="none" x="319" y="583" width="125.3271484375" height="87" opacity="0.2"/></g><g transform="translate(-270,-158) scale(1,1)"><rect fill="#ffffff" stroke="none" x="312" y="576" width="125.3271484375" height="87"/></g><g transform="translate(-270,-158) scale(1,1)"><path fill="none" stroke="#000000" d="M 312 576 L 437.3271484375 576 L 437.3271484375 663 L 312 663 L 312 576 Z Z" stroke-miterlimit="10"/></g><g transform="translate(-270,-158) scale(1,1)"><path fill="none" stroke="#000000" d="M 312 601 L 437.3271484375 601" stroke-miterlimit="10"/></g><g transform="translate(-270,-158) scale(1,1)"><path fill="none" stroke="#000000" d="M 312 654 L 437.3271484375 654" stroke-miterlimit="10"/></g><g transform="translate(-270,-158) scale(1,1)"><g><path fill="none" stroke="none"/><text fill="#000000" stroke="none" font-family="Arial" font-size="13px" font-style="normal" font-weight="bold" text-decoration="none" x="361.654052734375" y="595.5">Plan</text></g></g><g transform="translate(-270,-158) scale(1,1)"><g><path fill="none" stroke="none"/><text fill="#000000" stroke="none" font-family="Arial" font-size="13px" font-style="normal" font-weight="normal" text-decoration="none" x="317" y="618.5">-idPlan: int</text></g></g><g transform="translate(-270,-158) scale(1,1)"><g><path fill="none" stroke="none"/><text fill="#000000" stroke="none" font-family="Arial" font-size="13px" font-style="normal" font-weight="normal" text-decoration="none" x="317" y="633.5">-nPlan: stirng</text></g></g><g transform="translate(-270,-158) scale(1,1)"><g><path fill="none" stroke="none"/><text fill="#000000" stroke="none" font-family="Arial" font-size="13px" font-style="normal" font-weight="normal" text-decoration="none" x="317" y="648.5">-nPlanCost: decimal</text></g></g><g transform="translate(-270,-158) scale(1,1)"><rect fill="#C0C0C0" stroke="none" x="583" y="359" width="127.7138671875" height="147" opacity="0.2"/></g><g transform="translate(-270,-158) scale(1,1)"><rect fill="#ffffff" stroke="none" x="576" y="352" width="127.7138671875" height="147"/></g><g transform="translate(-270,-158) scale(1,1)"><path fill="none" stroke="#000000" d="M 576 352 L 703.7138671875 352 L 703.7138671875 499 L 576 499 L 576 352 Z Z" stroke-miterlimit="10"/></g><g transform="translate(-270,-158) scale(1,1)"><path fill="none" stroke="#000000" d="M 576 377 L 703.7138671875 377" stroke-miterlimit="10"/></g><g transform="translate(-270,-158) scale(1,1)"><path fill="none" stroke="#000000" d="M 576 490 L 703.7138671875 490" stroke-miterlimit="10"/></g><g transform="translate(-270,-158) scale(1,1)"><g><path fill="none" stroke="none"/><text fill="#000000" stroke="none" font-family="Arial" font-size="13px" font-style="normal" font-weight="bold" text-decoration="none" x="604.087890625" y="371.5">Subscription</text></g></g><g transform="translate(-270,-158) scale(1,1)"><g><path fill="none" stroke="none"/><text fill="#000000" stroke="none" font-family="Arial" font-size="13px" font-style="normal" font-weight="normal" text-decoration="none" x="581" y="394.5">-idSubscripcion: int</text></g></g><g transform="translate(-270,-158) scale(1,1)"><g><path fill="none" stroke="none"/><text fill="#000000" stroke="none" font-family="Arial" font-size="13px" font-style="normal" font-weight="normal" text-decoration="none" x="581" y="409.5">-qDays: int</text></g></g><g transform="translate(-270,-158) scale(1,1)"><g><path fill="none" stroke="none"/><text fill="#000000" stroke="none" font-family="Arial" font-size="13px" font-style="normal" font-weight="normal" text-decoration="none" x="581" y="424.5">-qPeople: int</text></g></g><g transform="translate(-270,-158) scale(1,1)"><g><path fill="none" stroke="none"/><text fill="#000000" stroke="none" font-family="Arial" font-size="13px" font-style="normal" font-weight="normal" text-decoration="none" x="581" y="439.5">-mSubCost: decimal</text></g></g><g transform="translate(-270,-158) scale(1,1)"><g><path fill="none" stroke="none"/><text fill="#000000" stroke="none" font-family="Arial" font-size="13px" font-style="normal" font-weight="normal" text-decoration="none" x="581" y="454.5">-dIni: date</text></g></g><g transform="translate(-270,-158) scale(1,1)"><g><path fill="none" stroke="none"/><text fill="#000000" stroke="none" font-family="Arial" font-size="13px" font-style="normal" font-weight="normal" text-decoration="none" x="581" y="469.5">-dEnd: date</text></g></g><g transform="translate(-270,-158) scale(1,1)"><g><path fill="none" stroke="none"/><text fill="#000000" stroke="none" font-family="Arial" font-size="13px" font-style="normal" font-weight="normal" text-decoration="none" x="581" y="484.5">-deliveryTurn: string</text></g></g><g transform="translate(-270,-158) scale(1,1)"><rect fill="#C0C0C0" stroke="none" x="999" y="407" width="72.2353515625" height="72" opacity="0.2"/></g><g transform="translate(-270,-158) scale(1,1)"><rect fill="#ffffff" stroke="none" x="992" y="400" width="72.2353515625" height="72"/></g><g transform="translate(-270,-158) scale(1,1)"><path fill="none" stroke="#000000" d="M 992 400 L 1064.2353515625 400 L 1064.2353515625 472 L 992 472 L 992 400 Z Z" stroke-miterlimit="10"/></g><g transform="translate(-270,-158) scale(1,1)"><path fill="none" stroke="#000000" d="M 992 425 L 1064.2353515625 425" stroke-miterlimit="10"/></g><g transform="translate(-270,-158) scale(1,1)"><path fill="none" stroke="#000000" d="M 992 463 L 1064.2353515625 463" stroke-miterlimit="10"/></g><g transform="translate(-270,-158) scale(1,1)"><g><path fill="none" stroke="none"/><text fill="#000000" stroke="none" font-family="Arial" font-size="13px" font-style="normal" font-weight="bold" text-decoration="none" x="1014.74951171875" y="419.5">Role</text></g></g><g transform="translate(-270,-158) scale(1,1)"><g><path fill="none" stroke="none"/><text fill="#000000" stroke="none" font-family="Arial" font-size="13px" font-style="normal" font-weight="normal" text-decoration="none" x="997" y="442.5">-idRole: int</text></g></g><g transform="translate(-270,-158) scale(1,1)"><g><path fill="none" stroke="none"/><text fill="#000000" stroke="none" font-family="Arial" font-size="13px" font-style="normal" font-weight="normal" text-decoration="none" x="997" y="457.5">-nRole: int</text></g></g><g transform="translate(-270,-158) scale(1,1)"><rect fill="#C0C0C0" stroke="none" x="975" y="567" width="126.0380859375" height="72" opacity="0.2"/></g><g transform="translate(-270,-158) scale(1,1)"><rect fill="#ffffff" stroke="none" x="968" y="560" width="126.0380859375" height="72"/></g><g transform="translate(-270,-158) scale(1,1)"><path fill="none" stroke="#000000" d="M 968 560 L 1094.0380859375 560 L 1094.0380859375 632 L 968 632 L 968 560 Z Z" stroke-miterlimit="10"/></g><g transform="translate(-270,-158) scale(1,1)"><path fill="none" stroke="#000000" d="M 968 585 L 1094.0380859375 585" stroke-miterlimit="10"/></g><g transform="translate(-270,-158) scale(1,1)"><path fill="none" stroke="#000000" d="M 968 623 L 1094.0380859375 623" stroke-miterlimit="10"/></g><g transform="translate(-270,-158) scale(1,1)"><g><path fill="none" stroke="none"/><text fill="#000000" stroke="none" font-family="Arial" font-size="13px" font-style="normal" font-weight="bold" text-decoration="none" x="998.871337890625" y="579.5">Permission</text></g></g><g transform="translate(-270,-158) scale(1,1)"><g><path fill="none" stroke="none"/><text fill="#000000" stroke="none" font-family="Arial" font-size="13px" font-style="normal" font-weight="normal" text-decoration="none" x="973" y="602.5">-idPermission: int</text></g></g><g transform="translate(-270,-158) scale(1,1)"><g><path fill="none" stroke="none"/><text fill="#000000" stroke="none" font-family="Arial" font-size="13px" font-style="normal" font-weight="normal" text-decoration="none" x="973" y="617.5">-nPermission: string</text></g></g><g transform="translate(-270,-158) scale(1,1)"><rect fill="#C0C0C0" stroke="none" x="799" y="367" width="111.9716796875" height="132" opacity="0.2"/></g><g transform="translate(-270,-158) scale(1,1)"><rect fill="#ffffff" stroke="none" x="792" y="360" width="111.9716796875" height="132"/></g><g transform="translate(-270,-158) scale(1,1)"><path fill="none" stroke="#000000" d="M 792 360 L 903.9716796875 360 L 903.9716796875 492 L 792 492 L 792 360 Z Z" stroke-miterlimit="10"/></g><g transform="translate(-270,-158) scale(1,1)"><path fill="none" stroke="#000000" d="M 792 385 L 903.9716796875 385" stroke-miterlimit="10"/></g><g transform="translate(-270,-158) scale(1,1)"><path fill="none" stroke="#000000" d="M 792 468 L 903.9716796875 468" stroke-miterlimit="10"/></g><g transform="translate(-270,-158) scale(1,1)"><g><path fill="none" stroke="none"/><text fill="#000000" stroke="none" font-family="Arial" font-size="13px" font-style="normal" font-weight="bold" text-decoration="none" x="834.26220703125" y="379.5">User</text></g></g><g transform="translate(-270,-158) scale(1,1)"><g><path fill="none" stroke="none"/><text fill="#000000" stroke="none" font-family="Arial" font-size="13px" font-style="normal" font-weight="normal" text-decoration="none" x="797" y="402.5">-idUser: int</text></g></g><g transform="translate(-270,-158) scale(1,1)"><g><path fill="none" stroke="none"/><text fill="#000000" stroke="none" font-family="Arial" font-size="13px" font-style="normal" font-weight="normal" text-decoration="none" x="797" y="417.5">-nUser: string</text></g></g><g transform="translate(-270,-158) scale(1,1)"><g><path fill="none" stroke="none"/><text fill="#000000" stroke="none" font-family="Arial" font-size="13px" font-style="normal" font-weight="normal" text-decoration="none" x="797" y="432.5">-password: string</text></g></g><g transform="translate(-270,-158) scale(1,1)"><g><path fill="none" stroke="none"/><text fill="#000000" stroke="none" font-family="Arial" font-size="13px" font-style="normal" font-weight="normal" text-decoration="none" x="797" y="447.5">-email: string</text></g></g><g transform="translate(-270,-158) scale(1,1)"><g><path fill="none" stroke="none"/><text fill="#000000" stroke="none" font-family="Arial" font-size="13px" font-style="normal" font-weight="normal" text-decoration="none" x="797" y="462.5">-dBirth: date</text></g></g><g transform="translate(-270,-158) scale(1,1)"><path fill="none" stroke="#000000" d="M 1024 560 L 1024 472" stroke-miterlimit="10"/></g><g transform="translate(-270,-158) scale(1,1)"><path fill="#FFFFFF" stroke="none" d="M 1028.2095177560159 482.16267485762415 L 1024 472 L 1019.790482243984 482.16267485762415 L 1024 494"/></g><g transform="translate(-270,-158) scale(1,1)"><path fill="none" stroke="#000000" d="M 1028.2095177560159 482.16267485762415 L 1024 472 L 1019.790482243984 482.16267485762415 L 1024 494 L 1028.2095177560159 482.16267485762415" stroke-miterlimit="10"/></g><g transform="translate(-270,-158) scale(1,1)"><g><path fill="none" stroke="none"/><text fill="#000000" stroke="none" font-family="Arial" font-size="13px" font-style="normal" font-weight="normal" text-decoration="none" x="1025.74365234375" y="544.5">1..*</text></g></g><g transform="translate(-270,-158) scale(1,1)"><g><path fill="none" stroke="none"/><text fill="#000000" stroke="none" font-family="Arial" font-size="13px" font-style="normal" font-weight="normal" text-decoration="none" x="1025.74365234375" y="499.5">1..*</text></g></g><g transform="translate(-270,-158) scale(1,1)"><path fill="none" stroke="#000000" d="M 378 493 L 378 576" stroke-miterlimit="10"/></g><g transform="translate(-270,-158) scale(1,1)"><path fill="#FFFFFF" stroke="none" d="M 373.790482243984 565.8373251423759 L 378 576 L 382.209517756016 565.8373251423759 L 378 554"/></g><g transform="translate(-270,-158) scale(1,1)"><path fill="none" stroke="#000000" d="M 373.790482243984 565.8373251423759 L 378 576 L 382.209517756016 565.8373251423759 L 378 554 L 373.790482243984 565.8373251423759" stroke-miterlimit="10"/></g><g transform="translate(-270,-158) scale(1,1)"><g><path fill="none" stroke="none"/><text fill="#000000" stroke="none" font-family="Arial" font-size="13px" font-style="normal" font-weight="normal" text-decoration="none" x="354.74365234375" y="520.5">1..*</text></g></g><g transform="translate(-270,-158) scale(1,1)"><g><path fill="none" stroke="none"/><text fill="#000000" stroke="none" font-family="Arial" font-size="13px" font-style="normal" font-weight="normal" text-decoration="none" x="361.5" y="560.5">1</text></g></g><g transform="translate(-270,-158) scale(1,1)"><path fill="none" stroke="#000000" d="M 792 441 L 704 441" stroke-miterlimit="10"/></g><g transform="translate(-270,-158) scale(1,1)"><path fill="none" stroke="#000000" d="M 714.1626748576241 436.790482243984 L 704 441 L 714.1626748576241 445.209517756016" stroke-miterlimit="10"/></g><g transform="translate(-270,-158) scale(1,1)"><g><path fill="none" stroke="none"/><text fill="#000000" stroke="none" font-family="Arial" font-size="13px" font-style="normal" font-weight="normal" text-decoration="none" x="766.5" y="434.5">1</text></g></g><g transform="translate(-270,-158) scale(1,1)"><g><path fill="none" stroke="none"/><text fill="#000000" stroke="none" font-family="Arial" font-size="13px" font-style="normal" font-weight="normal" text-decoration="none" x="714.74365234375" y="434.5">1..*</text></g></g><g transform="translate(-270,-158) scale(1,1)"><path fill="none" stroke="#000000" d="M 992 434 L 904 434" stroke-miterlimit="10"/></g><g transform="translate(-270,-158) scale(1,1)"><path fill="#FFFFFF" stroke="none" d="M 914.1626748576241 429.790482243984 L 904 434 L 914.1626748576241 438.209517756016 L 926 434"/></g><g transform="translate(-270,-158) scale(1,1)"><path fill="none" stroke="#000000" d="M 914.1626748576241 429.790482243984 L 904 434 L 914.1626748576241 438.209517756016 L 926 434 L 914.1626748576241 429.790482243984" stroke-miterlimit="10"/></g><g transform="translate(-270,-158) scale(1,1)"><g><path fill="none" stroke="none"/><text fill="#000000" stroke="none" font-family="Arial" font-size="13px" font-style="normal" font-weight="normal" text-decoration="none" x="959.74365234375" y="427.5">1..*</text></g></g><g transform="translate(-270,-158) scale(1,1)"><g><path fill="none" stroke="none"/><text fill="#000000" stroke="none" font-family="Arial" font-size="13px" font-style="normal" font-weight="normal" text-decoration="none" x="914.74365234375" y="427.5">1..*</text></g></g><g transform="translate(-270,-158) scale(1,1)"><path fill="none" stroke="#000000" d="M 536 216 L 376 216 L 376 376" stroke-miterlimit="10"/></g><g transform="translate(-270,-158) scale(1,1)"><path fill="#FFFFFF" stroke="none" d="M 371.790482243984 365.83732514237585 L 376 376 L 380.209517756016 365.83732514237585 L 376 354"/></g><g transform="translate(-270,-158) scale(1,1)"><path fill="none" stroke="#000000" d="M 371.790482243984 365.83732514237585 L 376 376 L 380.209517756016 365.83732514237585 L 376 354 L 371.790482243984 365.83732514237585" stroke-miterlimit="10"/></g><g transform="translate(-270,-158) scale(1,1)"><g><path fill="none" stroke="none"/><text fill="#000000" stroke="none" font-family="Arial" font-size="13px" font-style="normal" font-weight="normal" text-decoration="none" x="511.470458984375" y="209.5">*</text></g></g><g transform="translate(-270,-158) scale(1,1)"><g><path fill="none" stroke="none"/><text fill="#000000" stroke="none" font-family="Arial" font-size="13px" font-style="normal" font-weight="normal" text-decoration="none" x="352.74365234375" y="360.5">1..*</text></g></g><g transform="translate(-270,-158) scale(1,1)"><path fill="none" stroke="#000000" d="M 440 440 L 576 440" stroke-miterlimit="10"/></g><g transform="translate(-270,-158) scale(1,1)"><path fill="#FFFFFF" stroke="none" d="M 565.8373251423759 444.209517756016 L 576 440 L 565.8373251423758 435.790482243984 L 554 440"/></g><g transform="translate(-270,-158) scale(1,1)"><path fill="none" stroke="#000000" d="M 565.8373251423759 444.209517756016 L 576 440 L 565.8373251423758 435.790482243984 L 554 440 L 565.8373251423759 444.209517756016" stroke-miterlimit="10"/></g><g transform="translate(-270,-158) scale(1,1)"><g><path fill="none" stroke="none"/><text fill="#000000" stroke="none" font-family="Arial" font-size="13px" font-style="normal" font-weight="normal" text-decoration="none" x="450.74365234375" y="458.5">1..*</text></g></g><g transform="translate(-270,-158) scale(1,1)"><g><path fill="none" stroke="none"/><text fill="#000000" stroke="none" font-family="Arial" font-size="13px" font-style="normal" font-weight="normal" text-decoration="none" x="543.74365234375" y="458.5">1..*</text></g></g><g transform="translate(-270,-158) scale(1,1)"><path fill="none" stroke="#000000" d="M 832 360 L 832 208 L 713 208" stroke-miterlimit="10"/></g><g transform="translate(-270,-158) scale(1,1)"><path fill="none" stroke="#000000" d="M 723.1626748576241 203.790482243984 L 713 208 L 723.1626748576241 212.209517756016" stroke-miterlimit="10"/></g><g transform="translate(-270,-158) scale(1,1)"><g><path fill="none" stroke="none"/><text fill="#000000" stroke="none" font-family="Arial" font-size="13px" font-style="normal" font-weight="normal" text-decoration="none" x="833.74365234375" y="344.5">0..*</text></g></g><g transform="translate(-270,-158) scale(1,1)"><g><path fill="none" stroke="none"/><text fill="#000000" stroke="none" font-family="Arial" font-size="13px" font-style="normal" font-weight="normal" text-decoration="none" x="723.74365234375" y="201.5">1..*</text></g></g></g></svg>